<mxfile host="Electron" modified="2023-07-20T15:48:24.094Z" agent="Mozilla/5.0 (Macintosh; Intel Mac OS X 10_15_7) AppleWebKit/537.36 (KHTML, like Gecko) draw.io/21.5.0 Chrome/112.0.5615.204 Electron/24.5.1 Safari/537.36" etag="cAT7i3qu8Bz8vwhy7KWm" version="21.5.0" type="device" pages="2">
  <diagram name="overview" id="9Q0qc8ro2OQX7WcZR9Pz">
    <mxGraphModel dx="2021" dy="775" grid="1" gridSize="10" guides="1" tooltips="1" connect="1" arrows="1" fold="1" page="1" pageScale="1" pageWidth="827" pageHeight="1169" math="0" shadow="0">
      <root>
        <mxCell id="v07aUSKRO6PlqZ7t5c7J-0" />
        <mxCell id="v07aUSKRO6PlqZ7t5c7J-1" parent="v07aUSKRO6PlqZ7t5c7J-0" />
        <mxCell id="v07aUSKRO6PlqZ7t5c7J-41" value="" style="rounded=0;whiteSpace=wrap;html=1;strokeWidth=1;fillColor=#d5e8d4;strokeColor=#82b366;dashed=1;opacity=50;" parent="v07aUSKRO6PlqZ7t5c7J-1" vertex="1">
          <mxGeometry x="-539" y="150" width="410" height="300" as="geometry" />
        </mxCell>
        <mxCell id="v07aUSKRO6PlqZ7t5c7J-2" style="edgeStyle=orthogonalEdgeStyle;rounded=0;orthogonalLoop=1;jettySize=auto;html=1;exitX=0.5;exitY=1;exitDx=0;exitDy=0;entryX=0.5;entryY=0;entryDx=0;entryDy=0;fillColor=#6d8764;strokeColor=#3A5431;" parent="v07aUSKRO6PlqZ7t5c7J-1" source="v07aUSKRO6PlqZ7t5c7J-3" target="v07aUSKRO6PlqZ7t5c7J-7" edge="1">
          <mxGeometry relative="1" as="geometry" />
        </mxCell>
        <mxCell id="v07aUSKRO6PlqZ7t5c7J-3" value="Audit Log" style="rounded=0;whiteSpace=wrap;html=1;verticalAlign=top;fillColor=#d5e8d4;strokeColor=#82b366;shadow=1;" parent="v07aUSKRO6PlqZ7t5c7J-1" vertex="1">
          <mxGeometry x="-319" y="190" width="120" height="160" as="geometry" />
        </mxCell>
        <mxCell id="v07aUSKRO6PlqZ7t5c7J-4" style="edgeStyle=orthogonalEdgeStyle;rounded=0;orthogonalLoop=1;jettySize=auto;html=1;entryX=0;entryY=0.5;entryDx=0;entryDy=0;entryPerimeter=0;exitX=0.25;exitY=1;exitDx=0;exitDy=0;fillColor=#a0522d;strokeColor=#6D1F00;" parent="v07aUSKRO6PlqZ7t5c7J-1" source="v07aUSKRO6PlqZ7t5c7J-37" target="v07aUSKRO6PlqZ7t5c7J-24" edge="1">
          <mxGeometry relative="1" as="geometry">
            <mxPoint x="-289" y="485" as="sourcePoint" />
            <Array as="points">
              <mxPoint x="-289" y="505" />
            </Array>
          </mxGeometry>
        </mxCell>
        <mxCell id="v07aUSKRO6PlqZ7t5c7J-5" style="edgeStyle=orthogonalEdgeStyle;rounded=0;orthogonalLoop=1;jettySize=auto;html=1;exitX=0.5;exitY=1;exitDx=0;exitDy=0;entryX=0.5;entryY=0;entryDx=0;entryDy=0;fillColor=#a0522d;strokeColor=#6D1F00;" parent="v07aUSKRO6PlqZ7t5c7J-1" source="v07aUSKRO6PlqZ7t5c7J-37" target="v07aUSKRO6PlqZ7t5c7J-20" edge="1">
          <mxGeometry relative="1" as="geometry">
            <mxPoint x="-259" y="485" as="sourcePoint" />
          </mxGeometry>
        </mxCell>
        <mxCell id="v07aUSKRO6PlqZ7t5c7J-6" style="edgeStyle=orthogonalEdgeStyle;rounded=0;orthogonalLoop=1;jettySize=auto;html=1;exitX=0.75;exitY=1;exitDx=0;exitDy=0;entryX=0.5;entryY=0;entryDx=0;entryDy=0;fillColor=#a0522d;strokeColor=#6D1F00;" parent="v07aUSKRO6PlqZ7t5c7J-1" source="v07aUSKRO6PlqZ7t5c7J-37" target="v07aUSKRO6PlqZ7t5c7J-16" edge="1">
          <mxGeometry relative="1" as="geometry">
            <mxPoint x="-229" y="485" as="sourcePoint" />
            <Array as="points">
              <mxPoint x="-229" y="505" />
              <mxPoint x="-166" y="505" />
            </Array>
          </mxGeometry>
        </mxCell>
        <mxCell id="v07aUSKRO6PlqZ7t5c7J-7" value="Audit Log&lt;br&gt;Destination" style="rounded=0;whiteSpace=wrap;html=1;fillColor=#d5e8d4;strokeColor=#82b366;verticalAlign=top;shadow=1;" parent="v07aUSKRO6PlqZ7t5c7J-1" vertex="1">
          <mxGeometry x="-319" y="410" width="120" height="60" as="geometry" />
        </mxCell>
        <mxCell id="v07aUSKRO6PlqZ7t5c7J-8" value="LogRecord" style="text;html=1;align=center;verticalAlign=middle;resizable=0;points=[];;autosize=1;fillColor=#d5e8d4;strokeColor=#82b366;shadow=1;" parent="v07aUSKRO6PlqZ7t5c7J-1" vertex="1">
          <mxGeometry x="-249" y="373" width="70" height="20" as="geometry" />
        </mxCell>
        <mxCell id="v07aUSKRO6PlqZ7t5c7J-9" style="edgeStyle=orthogonalEdgeStyle;rounded=0;orthogonalLoop=1;jettySize=auto;html=1;exitX=1;exitY=0.5;exitDx=0;exitDy=0;entryX=0.25;entryY=1;entryDx=0;entryDy=0;fillColor=#6d8764;strokeColor=#3A5431;" parent="v07aUSKRO6PlqZ7t5c7J-1" source="v07aUSKRO6PlqZ7t5c7J-12" target="v07aUSKRO6PlqZ7t5c7J-10" edge="1">
          <mxGeometry relative="1" as="geometry" />
        </mxCell>
        <mxCell id="v07aUSKRO6PlqZ7t5c7J-10" value="Message Set" style="rounded=0;whiteSpace=wrap;html=1;fillColor=#d5e8d4;strokeColor=#82b366;verticalAlign=bottom;shadow=1;" parent="v07aUSKRO6PlqZ7t5c7J-1" vertex="1">
          <mxGeometry x="-539" y="110" width="120" height="60" as="geometry" />
        </mxCell>
        <mxCell id="v07aUSKRO6PlqZ7t5c7J-11" style="edgeStyle=orthogonalEdgeStyle;rounded=0;orthogonalLoop=1;jettySize=auto;html=1;entryX=0;entryY=0.25;entryDx=0;entryDy=0;fillColor=#6d8764;strokeColor=#3A5431;" parent="v07aUSKRO6PlqZ7t5c7J-1" source="v07aUSKRO6PlqZ7t5c7J-12" target="v07aUSKRO6PlqZ7t5c7J-3" edge="1">
          <mxGeometry relative="1" as="geometry" />
        </mxCell>
        <mxCell id="v07aUSKRO6PlqZ7t5c7J-12" value="Processing&lt;br&gt;Activity" style="rounded=0;whiteSpace=wrap;html=1;fillColor=#fff2cc;strokeColor=#d6b656;shadow=1;" parent="v07aUSKRO6PlqZ7t5c7J-1" vertex="1">
          <mxGeometry x="-722" y="200" width="150" height="60" as="geometry" />
        </mxCell>
        <mxCell id="v07aUSKRO6PlqZ7t5c7J-13" value="MessageDefinition" style="text;html=1;align=center;verticalAlign=middle;resizable=0;points=[];;autosize=1;fillColor=#d5e8d4;strokeColor=#82b366;shadow=1;" parent="v07aUSKRO6PlqZ7t5c7J-1" vertex="1">
          <mxGeometry x="-439" y="204" width="110" height="20" as="geometry" />
        </mxCell>
        <mxCell id="v07aUSKRO6PlqZ7t5c7J-14" value="Message&lt;br&gt;Formatter" style="rounded=0;whiteSpace=wrap;html=1;" parent="v07aUSKRO6PlqZ7t5c7J-1" vertex="1">
          <mxGeometry x="-309" y="227" width="100" height="40" as="geometry" />
        </mxCell>
        <mxCell id="v07aUSKRO6PlqZ7t5c7J-15" value="Log Record&lt;br&gt;Factory" style="rounded=0;whiteSpace=wrap;html=1;" parent="v07aUSKRO6PlqZ7t5c7J-1" vertex="1">
          <mxGeometry x="-309" y="290" width="100" height="40" as="geometry" />
        </mxCell>
        <mxCell id="v07aUSKRO6PlqZ7t5c7J-16" value="Store" style="shape=cylinder;whiteSpace=wrap;html=1;boundedLbl=1;backgroundOutline=1;fillColor=#fff2cc;strokeColor=#d6b656;shadow=1;" parent="v07aUSKRO6PlqZ7t5c7J-1" vertex="1">
          <mxGeometry x="-196" y="570" width="60" height="40" as="geometry" />
        </mxCell>
        <mxCell id="v07aUSKRO6PlqZ7t5c7J-17" style="edgeStyle=orthogonalEdgeStyle;rounded=0;orthogonalLoop=1;jettySize=auto;html=1;exitX=0;exitY=0.25;exitDx=0;exitDy=0;entryX=0.2;entryY=0.86;entryDx=0;entryDy=0;entryPerimeter=0;fillColor=#a0522d;strokeColor=#6D1F00;" parent="v07aUSKRO6PlqZ7t5c7J-1" source="v07aUSKRO6PlqZ7t5c7J-20" target="v07aUSKRO6PlqZ7t5c7J-24" edge="1">
          <mxGeometry relative="1" as="geometry">
            <mxPoint x="-179" y="540" as="targetPoint" />
          </mxGeometry>
        </mxCell>
        <mxCell id="v07aUSKRO6PlqZ7t5c7J-19" style="edgeStyle=orthogonalEdgeStyle;rounded=0;orthogonalLoop=1;jettySize=auto;html=1;exitX=0.5;exitY=1;exitDx=0;exitDy=0;entryX=0.5;entryY=0;entryDx=0;entryDy=0;" parent="v07aUSKRO6PlqZ7t5c7J-1" source="v07aUSKRO6PlqZ7t5c7J-20" edge="1">
          <mxGeometry relative="1" as="geometry">
            <mxPoint x="-259" y="595" as="targetPoint" />
          </mxGeometry>
        </mxCell>
        <mxCell id="v07aUSKRO6PlqZ7t5c7J-27" style="edgeStyle=orthogonalEdgeStyle;rounded=0;orthogonalLoop=1;jettySize=auto;html=1;exitX=0;exitY=0.75;exitDx=0;exitDy=0;entryX=0.25;entryY=1;entryDx=0;entryDy=0;fillColor=#a0522d;strokeColor=#6D1F00;" parent="v07aUSKRO6PlqZ7t5c7J-1" source="v07aUSKRO6PlqZ7t5c7J-20" target="v07aUSKRO6PlqZ7t5c7J-12" edge="1">
          <mxGeometry relative="1" as="geometry" />
        </mxCell>
        <mxCell id="v07aUSKRO6PlqZ7t5c7J-20" value="Analyze" style="shape=process;whiteSpace=wrap;html=1;backgroundOutline=1;fillColor=#fff2cc;strokeColor=#d6b656;shadow=1;" parent="v07aUSKRO6PlqZ7t5c7J-1" vertex="1">
          <mxGeometry x="-289" y="575" width="60" height="30" as="geometry" />
        </mxCell>
        <mxCell id="v07aUSKRO6PlqZ7t5c7J-21" value="Operator" style="shape=umlActor;verticalLabelPosition=bottom;labelBackgroundColor=#ffffff;verticalAlign=top;html=1;outlineConnect=0;fillColor=#a0522d;strokeColor=#6D1F00;fontColor=#ffffff;shadow=0;" parent="v07aUSKRO6PlqZ7t5c7J-1" vertex="1">
          <mxGeometry x="-494" y="475" width="30" height="60" as="geometry" />
        </mxCell>
        <mxCell id="v07aUSKRO6PlqZ7t5c7J-22" style="edgeStyle=orthogonalEdgeStyle;rounded=0;orthogonalLoop=1;jettySize=auto;html=1;exitX=1;exitY=0.5;exitDx=0;exitDy=0;exitPerimeter=0;entryX=0.5;entryY=0.5;entryDx=0;entryDy=0;entryPerimeter=0;fillColor=#a0522d;strokeColor=#6D1F00;" parent="v07aUSKRO6PlqZ7t5c7J-1" source="v07aUSKRO6PlqZ7t5c7J-24" target="v07aUSKRO6PlqZ7t5c7J-21" edge="1">
          <mxGeometry relative="1" as="geometry" />
        </mxCell>
        <mxCell id="v07aUSKRO6PlqZ7t5c7J-28" style="edgeStyle=orthogonalEdgeStyle;rounded=0;orthogonalLoop=1;jettySize=auto;html=1;entryX=0.75;entryY=1;entryDx=0;entryDy=0;fillColor=#a0522d;strokeColor=#6D1F00;" parent="v07aUSKRO6PlqZ7t5c7J-1" target="v07aUSKRO6PlqZ7t5c7J-12" edge="1">
          <mxGeometry relative="1" as="geometry">
            <mxPoint x="-599" y="300" as="targetPoint" />
            <mxPoint x="-428" y="500" as="sourcePoint" />
            <Array as="points">
              <mxPoint x="-428" y="570" />
              <mxPoint x="-609" y="570" />
            </Array>
          </mxGeometry>
        </mxCell>
        <mxCell id="v07aUSKRO6PlqZ7t5c7J-24" value="Decide" style="strokeWidth=1;html=1;shape=mxgraph.flowchart.display;whiteSpace=wrap;flipH=1;fillColor=#fff2cc;strokeColor=#d6b656;shadow=1;" parent="v07aUSKRO6PlqZ7t5c7J-1" vertex="1">
          <mxGeometry x="-434" y="485" width="70" height="40" as="geometry" />
        </mxCell>
        <mxCell id="v07aUSKRO6PlqZ7t5c7J-29" value="Log" style="text;html=1;align=center;verticalAlign=middle;resizable=0;points=[];;autosize=1;" parent="v07aUSKRO6PlqZ7t5c7J-1" vertex="1">
          <mxGeometry x="-577" y="207" width="40" height="20" as="geometry" />
        </mxCell>
        <mxCell id="v07aUSKRO6PlqZ7t5c7J-30" value="Route" style="text;html=1;align=center;verticalAlign=middle;resizable=0;points=[];;autosize=1;" parent="v07aUSKRO6PlqZ7t5c7J-1" vertex="1">
          <mxGeometry x="-359" y="505" width="50" height="20" as="geometry" />
        </mxCell>
        <mxCell id="v07aUSKRO6PlqZ7t5c7J-31" value="Take Action" style="text;html=1;align=center;verticalAlign=middle;resizable=0;points=[];;autosize=1;" parent="v07aUSKRO6PlqZ7t5c7J-1" vertex="1">
          <mxGeometry x="-684" y="377" width="80" height="20" as="geometry" />
        </mxCell>
        <mxCell id="v07aUSKRO6PlqZ7t5c7J-32" value="Take Action" style="text;html=1;align=center;verticalAlign=middle;resizable=0;points=[];;autosize=1;" parent="v07aUSKRO6PlqZ7t5c7J-1" vertex="1">
          <mxGeometry x="-760" y="377" width="80" height="20" as="geometry" />
        </mxCell>
        <mxCell id="v07aUSKRO6PlqZ7t5c7J-33" value="Route" style="text;html=1;align=center;verticalAlign=middle;resizable=0;points=[];;autosize=1;" parent="v07aUSKRO6PlqZ7t5c7J-1" vertex="1">
          <mxGeometry x="-359" y="561" width="50" height="20" as="geometry" />
        </mxCell>
        <mxCell id="v07aUSKRO6PlqZ7t5c7J-34" value="Route" style="text;html=1;align=center;verticalAlign=middle;resizable=0;points=[];;autosize=1;" parent="v07aUSKRO6PlqZ7t5c7J-1" vertex="1">
          <mxGeometry x="-259" y="525" width="50" height="20" as="geometry" />
        </mxCell>
        <mxCell id="v07aUSKRO6PlqZ7t5c7J-35" value="Route" style="text;html=1;align=center;verticalAlign=middle;resizable=0;points=[];;autosize=1;" parent="v07aUSKRO6PlqZ7t5c7J-1" vertex="1">
          <mxGeometry x="-160" y="525" width="50" height="20" as="geometry" />
        </mxCell>
        <mxCell id="v07aUSKRO6PlqZ7t5c7J-36" value="" style="rounded=0;whiteSpace=wrap;html=1;fillColor=#fff2cc;strokeColor=#d6b656;shadow=0;" parent="v07aUSKRO6PlqZ7t5c7J-1" vertex="1">
          <mxGeometry x="-539" y="110" width="120" height="40" as="geometry" />
        </mxCell>
        <mxCell id="v07aUSKRO6PlqZ7t5c7J-37" value="" style="rounded=0;whiteSpace=wrap;html=1;fillColor=#fff2cc;strokeColor=#d6b656;shadow=1;" parent="v07aUSKRO6PlqZ7t5c7J-1" vertex="1">
          <mxGeometry x="-319" y="450" width="120" height="20" as="geometry" />
        </mxCell>
        <mxCell id="v07aUSKRO6PlqZ7t5c7J-40" value="Scope of Audit Log&lt;br&gt;Framework (ALF)" style="text;html=1;align=center;verticalAlign=middle;resizable=0;points=[];;autosize=1;" parent="v07aUSKRO6PlqZ7t5c7J-1" vertex="1">
          <mxGeometry x="-474" y="285" width="120" height="30" as="geometry" />
        </mxCell>
      </root>
    </mxGraphModel>
  </diagram>
  <diagram id="TNU5d9mxGJ3BU1DqjUrd" name="audit-record-structure">
    <mxGraphModel dx="1194" dy="775" grid="1" gridSize="10" guides="1" tooltips="1" connect="1" arrows="1" fold="1" page="1" pageScale="1" pageWidth="827" pageHeight="1169" math="0" shadow="0">
      <root>
        <mxCell id="2Gug9YANCqlLnM6_Litz-0" />
        <mxCell id="2Gug9YANCqlLnM6_Litz-1" parent="2Gug9YANCqlLnM6_Litz-0" />
        <mxCell id="S-WpJF74Eo_OSTCcl3oI-0" value="guid" style="rounded=0;whiteSpace=wrap;html=1;align=left;fillColor=#fff2cc;strokeColor=#d6b656;shadow=1;" parent="2Gug9YANCqlLnM6_Litz-1" vertex="1">
          <mxGeometry x="150" y="170" width="210" height="30" as="geometry" />
        </mxCell>
        <mxCell id="S-WpJF74Eo_OSTCcl3oI-1" value="timestamp" style="rounded=0;whiteSpace=wrap;html=1;align=left;fillColor=#fff2cc;strokeColor=#d6b656;shadow=1;" parent="2Gug9YANCqlLnM6_Litz-1" vertex="1">
          <mxGeometry x="150" y="200" width="210" height="30" as="geometry" />
        </mxCell>
        <mxCell id="S-WpJF74Eo_OSTCcl3oI-19" value="" style="edgeStyle=orthogonalEdgeStyle;rounded=0;orthogonalLoop=1;jettySize=auto;html=1;entryX=0;entryY=0.5;entryDx=0;entryDy=0;fillColor=#fff2cc;strokeColor=#d6b656;shadow=0;strokeWidth=3;" parent="2Gug9YANCqlLnM6_Litz-1" source="S-WpJF74Eo_OSTCcl3oI-2" target="S-WpJF74Eo_OSTCcl3oI-18" edge="1">
          <mxGeometry relative="1" as="geometry" />
        </mxCell>
        <mxCell id="S-WpJF74Eo_OSTCcl3oI-2" value="originatorProperties" style="rounded=0;whiteSpace=wrap;html=1;align=left;fillColor=#fff2cc;strokeColor=#d6b656;shadow=1;" parent="2Gug9YANCqlLnM6_Litz-1" vertex="1">
          <mxGeometry x="150" y="230" width="210" height="30" as="geometry" />
        </mxCell>
        <mxCell id="S-WpJF74Eo_OSTCcl3oI-18" value="serverName" style="rounded=0;whiteSpace=wrap;html=1;align=left;fillColor=#fff2cc;strokeColor=#d6b656;shadow=1;" parent="2Gug9YANCqlLnM6_Litz-1" vertex="1">
          <mxGeometry x="440" y="160" width="210" height="30" as="geometry" />
        </mxCell>
        <mxCell id="S-WpJF74Eo_OSTCcl3oI-25" value="" style="edgeStyle=orthogonalEdgeStyle;rounded=0;orthogonalLoop=1;jettySize=auto;html=1;fillColor=#fff2cc;strokeColor=#d6b656;shadow=0;strokeWidth=3;entryX=0;entryY=0.5;entryDx=0;entryDy=0;" parent="2Gug9YANCqlLnM6_Litz-1" source="S-WpJF74Eo_OSTCcl3oI-3" target="S-WpJF74Eo_OSTCcl3oI-24" edge="1">
          <mxGeometry relative="1" as="geometry" />
        </mxCell>
        <mxCell id="S-WpJF74Eo_OSTCcl3oI-3" value="originatorComponent" style="rounded=0;whiteSpace=wrap;html=1;align=left;fillColor=#fff2cc;strokeColor=#d6b656;shadow=1;" parent="2Gug9YANCqlLnM6_Litz-1" vertex="1">
          <mxGeometry x="150" y="260" width="210" height="30" as="geometry" />
        </mxCell>
        <mxCell id="S-WpJF74Eo_OSTCcl3oI-24" value="componentId" style="rounded=0;whiteSpace=wrap;html=1;align=left;fillColor=#fff2cc;strokeColor=#d6b656;shadow=1;" parent="2Gug9YANCqlLnM6_Litz-1" vertex="1">
          <mxGeometry x="440" y="309" width="210" height="30" as="geometry" />
        </mxCell>
        <mxCell id="S-WpJF74Eo_OSTCcl3oI-4" value="actionDescription" style="rounded=0;whiteSpace=wrap;html=1;align=left;fillColor=#fff2cc;strokeColor=#d6b656;shadow=1;" parent="2Gug9YANCqlLnM6_Litz-1" vertex="1">
          <mxGeometry x="150" y="290" width="210" height="30" as="geometry" />
        </mxCell>
        <mxCell id="S-WpJF74Eo_OSTCcl3oI-5" value="threadId" style="rounded=0;whiteSpace=wrap;html=1;align=left;fillColor=#fff2cc;strokeColor=#d6b656;shadow=1;" parent="2Gug9YANCqlLnM6_Litz-1" vertex="1">
          <mxGeometry x="150" y="320" width="210" height="30" as="geometry" />
        </mxCell>
        <mxCell id="S-WpJF74Eo_OSTCcl3oI-6" value="threadName" style="rounded=0;whiteSpace=wrap;html=1;align=left;fillColor=#fff2cc;strokeColor=#d6b656;shadow=1;" parent="2Gug9YANCqlLnM6_Litz-1" vertex="1">
          <mxGeometry x="150" y="350" width="210" height="30" as="geometry" />
        </mxCell>
        <mxCell id="S-WpJF74Eo_OSTCcl3oI-7" value="severityCode" style="rounded=0;whiteSpace=wrap;html=1;align=left;fillColor=#d5e8d4;strokeColor=#82b366;shadow=1;" parent="2Gug9YANCqlLnM6_Litz-1" vertex="1">
          <mxGeometry x="150" y="380" width="210" height="30" as="geometry" />
        </mxCell>
        <mxCell id="S-WpJF74Eo_OSTCcl3oI-8" value="severity" style="rounded=0;whiteSpace=wrap;html=1;align=left;fillColor=#fff2cc;strokeColor=#d6b656;shadow=1;" parent="2Gug9YANCqlLnM6_Litz-1" vertex="1">
          <mxGeometry x="150" y="410" width="210" height="30" as="geometry" />
        </mxCell>
        <mxCell id="S-WpJF74Eo_OSTCcl3oI-9" value="messageId" style="rounded=0;whiteSpace=wrap;html=1;align=left;fillColor=#fff2cc;strokeColor=#d6b656;shadow=1;" parent="2Gug9YANCqlLnM6_Litz-1" vertex="1">
          <mxGeometry x="150" y="440" width="210" height="30" as="geometry" />
        </mxCell>
        <mxCell id="S-WpJF74Eo_OSTCcl3oI-10" value="messageText" style="rounded=0;whiteSpace=wrap;html=1;align=left;fillColor=#fff2cc;strokeColor=#d6b656;shadow=1;" parent="2Gug9YANCqlLnM6_Litz-1" vertex="1">
          <mxGeometry x="150" y="470" width="210" height="30" as="geometry" />
        </mxCell>
        <mxCell id="S-WpJF74Eo_OSTCcl3oI-11" value="messageParameters" style="rounded=0;whiteSpace=wrap;html=1;align=left;fillColor=#fff2cc;strokeColor=#d6b656;shadow=1;" parent="2Gug9YANCqlLnM6_Litz-1" vertex="1">
          <mxGeometry x="150" y="500" width="210" height="30" as="geometry" />
        </mxCell>
        <mxCell id="S-WpJF74Eo_OSTCcl3oI-12" value="additionalInformation" style="rounded=0;whiteSpace=wrap;html=1;align=left;fillColor=#fff2cc;strokeColor=#d6b656;shadow=1;" parent="2Gug9YANCqlLnM6_Litz-1" vertex="1">
          <mxGeometry x="150" y="530" width="210" height="30" as="geometry" />
        </mxCell>
        <mxCell id="S-WpJF74Eo_OSTCcl3oI-13" value="systemAction" style="rounded=0;whiteSpace=wrap;html=1;align=left;fillColor=#fff2cc;strokeColor=#d6b656;shadow=1;" parent="2Gug9YANCqlLnM6_Litz-1" vertex="1">
          <mxGeometry x="150" y="560" width="210" height="30" as="geometry" />
        </mxCell>
        <mxCell id="S-WpJF74Eo_OSTCcl3oI-14" value="userAction" style="rounded=0;whiteSpace=wrap;html=1;align=left;fillColor=#fff2cc;strokeColor=#d6b656;shadow=1;" parent="2Gug9YANCqlLnM6_Litz-1" vertex="1">
          <mxGeometry x="150" y="590" width="210" height="30" as="geometry" />
        </mxCell>
        <mxCell id="S-WpJF74Eo_OSTCcl3oI-15" value="exceptionClassName" style="rounded=0;whiteSpace=wrap;html=1;align=left;fillColor=#fff2cc;strokeColor=#d6b656;shadow=1;" parent="2Gug9YANCqlLnM6_Litz-1" vertex="1">
          <mxGeometry x="150" y="620" width="210" height="30" as="geometry" />
        </mxCell>
        <mxCell id="S-WpJF74Eo_OSTCcl3oI-20" value="exceptionMessage" style="rounded=0;whiteSpace=wrap;html=1;align=left;fillColor=#fff2cc;strokeColor=#d6b656;shadow=1;" parent="2Gug9YANCqlLnM6_Litz-1" vertex="1">
          <mxGeometry x="150" y="650" width="210" height="30" as="geometry" />
        </mxCell>
        <mxCell id="S-WpJF74Eo_OSTCcl3oI-21" value="exceptionStackTrace" style="rounded=0;whiteSpace=wrap;html=1;align=left;fillColor=#fff2cc;strokeColor=#d6b656;shadow=1;" parent="2Gug9YANCqlLnM6_Litz-1" vertex="1">
          <mxGeometry x="150" y="680" width="210" height="30" as="geometry" />
        </mxCell>
        <mxCell id="S-WpJF74Eo_OSTCcl3oI-22" value="serverType" style="rounded=0;whiteSpace=wrap;html=1;align=left;fillColor=#fff2cc;strokeColor=#d6b656;shadow=1;" parent="2Gug9YANCqlLnM6_Litz-1" vertex="1">
          <mxGeometry x="440" y="190" width="210" height="30" as="geometry" />
        </mxCell>
        <mxCell id="S-WpJF74Eo_OSTCcl3oI-23" value="localOrganizationName" style="rounded=0;whiteSpace=wrap;html=1;align=left;fillColor=#fff2cc;strokeColor=#d6b656;shadow=1;" parent="2Gug9YANCqlLnM6_Litz-1" vertex="1">
          <mxGeometry x="440" y="220" width="210" height="30" as="geometry" />
        </mxCell>
        <mxCell id="S-WpJF74Eo_OSTCcl3oI-26" value="componentName" style="rounded=0;whiteSpace=wrap;html=1;align=left;fillColor=#fff2cc;strokeColor=#d6b656;shadow=1;" parent="2Gug9YANCqlLnM6_Litz-1" vertex="1">
          <mxGeometry x="440" y="339" width="210" height="30" as="geometry" />
        </mxCell>
        <mxCell id="S-WpJF74Eo_OSTCcl3oI-27" value="componentStatus" style="rounded=0;whiteSpace=wrap;html=1;align=left;fillColor=#fff2cc;strokeColor=#d6b656;shadow=1;" parent="2Gug9YANCqlLnM6_Litz-1" vertex="1">
          <mxGeometry x="440" y="369" width="210" height="30" as="geometry" />
        </mxCell>
        <mxCell id="ZfOvKJMSTZ7FQWS6z5rX-0" value="componentDescription" style="rounded=0;whiteSpace=wrap;html=1;align=left;fillColor=#fff2cc;strokeColor=#d6b656;shadow=1;" parent="2Gug9YANCqlLnM6_Litz-1" vertex="1">
          <mxGeometry x="440" y="399" width="210" height="30" as="geometry" />
        </mxCell>
        <mxCell id="ZfOvKJMSTZ7FQWS6z5rX-1" value="componentWikiURL" style="rounded=0;whiteSpace=wrap;html=1;align=left;fillColor=#fff2cc;strokeColor=#d6b656;shadow=1;" parent="2Gug9YANCqlLnM6_Litz-1" vertex="1">
          <mxGeometry x="440" y="429" width="210" height="30" as="geometry" />
        </mxCell>
        <mxCell id="ZfOvKJMSTZ7FQWS6z5rX-2" value="metadataCollectionId" style="rounded=0;whiteSpace=wrap;html=1;align=left;fillColor=#fff2cc;strokeColor=#d6b656;shadow=1;" parent="2Gug9YANCqlLnM6_Litz-1" vertex="1">
          <mxGeometry x="440" y="250" width="210" height="30" as="geometry" />
        </mxCell>
      </root>
    </mxGraphModel>
  </diagram>
</mxfile>
